<svg width="133" height="133" viewBox="0 0 133 133" fill="none" xmlns="http://www.w3.org/2000/svg">
<path d="M69.2708 8.3125C59.4621 8.3125 50.8171 14.7962 48.0463 24.2171C45.1092 22.8871 42.0058 22.1667 38.7917 22.1667C32.9127 22.1667 27.2745 24.5021 23.1175 28.6591C18.9604 32.8162 16.625 38.4544 16.625 44.3333C16.625 54.4192 23.4967 63.2304 33.25 65.7796V105.292H105.292V65.7796C115.045 63.2304 121.917 54.4192 121.917 44.3333C121.917 38.4544 119.581 32.8162 115.424 28.6591C111.267 24.5021 105.629 22.1667 99.75 22.1667C96.5358 22.1667 93.4325 22.8871 90.4954 24.2171C87.7246 14.7962 79.0796 8.3125 69.2708 8.3125ZM66.5 58.1875H72.0417V96.9792H66.5V58.1875ZM49.875 69.2708H55.4167V96.9792H49.875V69.2708ZM83.125 69.2708H88.6667V96.9792H83.125V69.2708ZM33.25 110.833V116.375C33.25 117.845 33.8339 119.254 34.8731 120.294C35.9124 121.333 37.3219 121.917 38.7917 121.917H99.75C101.22 121.917 102.629 121.333 103.669 120.294C104.708 119.254 105.292 117.845 105.292 116.375V110.833H33.25Z" fill="white"/>
</svg>
