<svg xmlns="http://www.w3.org/2000/svg" width="223" height="234" fill="none" viewBox="0 0 223 234">
    <path fill="#0DE" d="M194 97c78 22-22 90-97 97S0 150.572 0 97 43.428 0 97 0s19 75 97 97z"/>
    <path fill="#fff" d="M111.271 109.312c-9.809 0-18.454 6.484-21.225 15.905-2.937-1.33-6.04-2.05-9.254-2.05a22.166 22.166 0 0 0-22.167 22.166c0 10.086 6.872 18.897 16.625 21.447v39.512h72.042V166.78c9.753-2.55 16.625-11.361 16.625-21.447a22.167 22.167 0 0 0-22.167-22.166c-3.214 0-6.317.72-9.255 2.05-2.77-9.421-11.415-15.905-21.224-15.905zm-2.771 49.876h5.542v38.791H108.5v-38.791zm-16.625 11.083h5.542v27.708h-5.542v-27.708zm33.25 0h5.542v27.708h-5.542v-27.708zM75.25 211.833v5.542a5.544 5.544 0 0 0 5.542 5.542h60.958a5.545 5.545 0 0 0 5.542-5.542v-5.542H75.25z"/>
</svg>
